<svg width="64" height="64" viewBox="0 0 64 64" fill="none" xmlns="http://www.w3.org/2000/svg">
<mask id="path-1-inside-1_17_1579" fill="white">
<path d="M0 32C0 14.3269 14.3269 0 32 0C49.6731 0 64 14.3269 64 32C64 49.6731 49.6731 64 32 64C14.3269 64 0 49.6731 0 32Z"/>
</mask>
<path d="M0 32C0 14.3269 14.3269 0 32 0C49.6731 0 64 14.3269 64 32C64 49.6731 49.6731 64 32 64C14.3269 64 0 49.6731 0 32Z" fill="#6366F1" fill-opacity="0.1"/>
<path d="M32 64V62C15.4315 62 2 48.5685 2 32H0H-2C-2 50.7777 13.2223 66 32 66V64ZM64 32H62C62 48.5685 48.5685 62 32 62V64V66C50.7777 66 66 50.7777 66 32H64ZM32 0V2C48.5685 2 62 15.4315 62 32H64H66C66 13.2223 50.7777 -2 32 -2V0ZM32 0V-2C13.2223 -2 -2 13.2223 -2 32H0H2C2 15.4315 15.4315 2 32 2V0Z" fill="#6366F1" mask="url(#path-1-inside-1_17_1579)"/>
<path d="M19.4481 39.2187C18.9479 39.7187 18.6669 40.3969 18.6667 41.1041V44.0001C18.6667 44.3537 18.8072 44.6928 19.0573 44.9429C19.3073 45.1929 19.6465 45.3334 20.0001 45.3334H24.0001C24.3537 45.3334 24.6928 45.1929 24.9429 44.9429C25.1929 44.6928 25.3334 44.3537 25.3334 44.0001V42.6667C25.3334 42.3131 25.4739 41.974 25.7239 41.7239C25.974 41.4739 26.3131 41.3334 26.6667 41.3334H28.0001C28.3537 41.3334 28.6928 41.1929 28.9429 40.9429C29.1929 40.6928 29.3334 40.3537 29.3334 40.0001V38.6667C29.3334 38.3131 29.4739 37.974 29.7239 37.7239C29.974 37.4739 30.3131 37.3334 30.6667 37.3334H30.8961C31.6033 37.3332 32.2814 37.0522 32.7814 36.5521L33.8667 35.4667C35.7199 36.1122 37.7372 36.1098 39.5887 35.4597C41.4403 34.8097 43.0164 33.5505 44.0592 31.8882C45.1021 30.2259 45.55 28.2589 45.3296 26.309C45.1092 24.3591 44.2336 22.5417 42.846 21.1541C41.4584 19.7666 39.641 18.891 37.6911 18.6706C35.7412 18.4502 33.7742 18.898 32.1119 19.9409C30.4496 20.9838 29.1905 22.5599 28.5404 24.4114C27.8904 26.2629 27.8879 28.2803 28.5334 30.1334L19.4481 39.2187Z" stroke="#6366F1" stroke-width="2.66667" stroke-linecap="round" stroke-linejoin="round"/>
<path d="M37.9999 26.6666C38.3681 26.6666 38.6666 26.3681 38.6666 25.9999C38.6666 25.6317 38.3681 25.3333 37.9999 25.3333C37.6317 25.3333 37.3333 25.6317 37.3333 25.9999C37.3333 26.3681 37.6317 26.6666 37.9999 26.6666Z" fill="#6366F1" stroke="#6366F1" stroke-width="2.66667" stroke-linecap="round" stroke-linejoin="round"/>
</svg>
