<svg width="96" height="96" viewBox="0 0 96 96" fill="none" xmlns="http://www.w3.org/2000/svg">
<mask id="path-1-inside-1_18_1747" fill="white">
<path d="M0 48C0 21.4903 21.4903 0 48 0C74.5097 0 96 21.4903 96 48C96 74.5097 74.5097 96 48 96C21.4903 96 0 74.5097 0 48Z"/>
</mask>
<path d="M0 48C0 21.4903 21.4903 0 48 0C74.5097 0 96 21.4903 96 48C96 74.5097 74.5097 96 48 96C21.4903 96 0 74.5097 0 48Z" fill="#6366F1" fill-opacity="0.2"/>
<path d="M48 96V94C22.5949 94 2 73.4051 2 48H0H-2C-2 75.6142 20.3858 98 48 98V96ZM96 48H94C94 73.4051 73.4051 94 48 94V96V98C75.6142 98 98 75.6142 98 48H96ZM48 0V2C73.4051 2 94 22.5949 94 48H96H98C98 20.3858 75.6142 -2 48 -2V0ZM48 0V-2C20.3858 -2 -2 20.3858 -2 48H0H2C2 22.5949 22.5949 2 48 2V0Z" fill="#6366F1" mask="url(#path-1-inside-1_18_1747)"/>
<path d="M68 38L50.018 49.454C49.4078 49.8084 48.7147 49.9951 48.009 49.9951C47.3033 49.9951 46.6102 49.8084 46 49.454L28 38" stroke="#6366F1" stroke-width="3" stroke-linecap="round" stroke-linejoin="round"/>
<path d="M64 32H32C29.7909 32 28 33.7909 28 36V60C28 62.2091 29.7909 64 32 64H64C66.2091 64 68 62.2091 68 60V36C68 33.7909 66.2091 32 64 32Z" stroke="#6366F1" stroke-width="3" stroke-linecap="round" stroke-linejoin="round"/>
</svg>
