<svg width="285" height="60" viewBox="0 0 285 60" fill="none" xmlns="http://www.w3.org/2000/svg">
<path d="M50 18.75V41.25L40 46.875M50 18.75L40 13.125M50 18.75L30 30M40 46.875L30 52.5M40 46.875V35L50 30M30 52.5L20 46.875M30 52.5V30M20 46.875L10 41.25V18.75M20 46.875V35L10 30M10 18.75L20 13.125M10 18.75L30 30M20 13.125L30 7.5L40 13.125M20 13.125L30 18.75L40 13.125" stroke="#F8FAFC" stroke-width="2" stroke-linecap="round" stroke-linejoin="round"/>
<path d="M82.6295 45.48C80.7362 45.48 79.0295 45.1867 77.5095 44.6C75.9895 43.9867 74.6962 43.0933 73.6295 41.92C72.5629 40.72 71.7362 39.24 71.1495 37.48C70.5629 35.6933 70.2695 33.6133 70.2695 31.24C70.2695 28.8933 70.5629 26.8133 71.1495 25C71.7362 23.16 72.5629 21.6267 73.6295 20.4C74.6962 19.1467 75.9895 18.2 77.5095 17.56C79.0295 16.92 80.7362 16.6 82.6295 16.6C85.2162 16.6 87.3495 17.1333 89.0295 18.2C90.7095 19.24 92.0562 20.8933 93.0695 23.16L87.8295 25.88C87.4562 24.7067 86.8695 23.7733 86.0695 23.08C85.2962 22.36 84.1495 22 82.6295 22C80.8429 22 79.4029 22.5867 78.3095 23.76C77.2429 24.9067 76.7095 26.5867 76.7095 28.8V33.28C76.7095 35.4933 77.2429 37.1867 78.3095 38.36C79.4029 39.5067 80.8429 40.08 82.6295 40.08C84.1229 40.08 85.3095 39.68 86.1895 38.88C87.0962 38.0533 87.7629 37.0667 88.1895 35.92L93.1495 38.8C92.1095 40.9333 90.7362 42.5867 89.0295 43.76C87.3495 44.9067 85.2162 45.48 82.6295 45.48ZM104.104 45.48C102.558 45.48 101.171 45.2267 99.9442 44.72C98.7442 44.2133 97.7176 43.48 96.8642 42.52C96.0376 41.56 95.3976 40.4 94.9442 39.04C94.4909 37.68 94.2642 36.16 94.2642 34.48C94.2642 32.8 94.4909 31.28 94.9442 29.92C95.3976 28.56 96.0376 27.4133 96.8642 26.48C97.7176 25.52 98.7442 24.7867 99.9442 24.28C101.171 23.7733 102.558 23.52 104.104 23.52C105.651 23.52 107.024 23.7733 108.224 24.28C109.451 24.7867 110.478 25.52 111.304 26.48C112.158 27.4133 112.811 28.56 113.264 29.92C113.718 31.28 113.944 32.8 113.944 34.48C113.944 36.16 113.718 37.68 113.264 39.04C112.811 40.4 112.158 41.56 111.304 42.52C110.478 43.48 109.451 44.2133 108.224 44.72C107.024 45.2267 105.651 45.48 104.104 45.48ZM104.104 40.8C105.278 40.8 106.184 40.44 106.824 39.72C107.464 39 107.784 37.9733 107.784 36.64V32.36C107.784 31.0267 107.464 30 106.824 29.28C106.184 28.56 105.278 28.2 104.104 28.2C102.931 28.2 102.024 28.56 101.384 29.28C100.744 30 100.424 31.0267 100.424 32.36V36.64C100.424 37.9733 100.744 39 101.384 39.72C102.024 40.44 102.931 40.8 104.104 40.8ZM129.542 41.48H129.342C129.182 42.04 128.929 42.5733 128.582 43.08C128.236 43.56 127.809 43.9867 127.302 44.36C126.822 44.7067 126.262 44.9733 125.622 45.16C125.009 45.3733 124.369 45.48 123.702 45.48C121.036 45.48 119.022 44.5467 117.662 42.68C116.302 40.7867 115.622 38.0533 115.622 34.48C115.622 30.9067 116.302 28.1867 117.662 26.32C119.022 24.4533 121.036 23.52 123.702 23.52C125.062 23.52 126.262 23.8933 127.302 24.64C128.369 25.3867 129.049 26.3467 129.342 27.52H129.542V15.4H135.462V45H129.542V41.48ZM125.662 40.68C126.782 40.68 127.702 40.4133 128.422 39.88C129.169 39.32 129.542 38.56 129.542 37.6V31.4C129.542 30.44 129.169 29.6933 128.422 29.16C127.702 28.6 126.782 28.32 125.662 28.32C124.542 28.32 123.609 28.72 122.862 29.52C122.142 30.2933 121.782 31.3467 121.782 32.68V36.32C121.782 37.6533 122.142 38.72 122.862 39.52C123.609 40.2933 124.542 40.68 125.662 40.68ZM148.258 45.48C146.658 45.48 145.232 45.2267 143.978 44.72C142.725 44.1867 141.658 43.4533 140.778 42.52C139.925 41.56 139.272 40.4 138.818 39.04C138.392 37.68 138.178 36.16 138.178 34.48C138.178 32.8267 138.392 31.3333 138.818 30C139.245 28.64 139.872 27.48 140.698 26.52C141.552 25.56 142.592 24.8267 143.818 24.32C145.045 23.7867 146.445 23.52 148.018 23.52C149.752 23.52 151.232 23.8133 152.458 24.4C153.712 24.9867 154.725 25.7733 155.498 26.76C156.298 27.7467 156.872 28.8933 157.218 30.2C157.592 31.48 157.778 32.8267 157.778 34.24V36H144.298V36.32C144.298 37.7067 144.672 38.8133 145.418 39.64C146.165 40.44 147.338 40.84 148.938 40.84C150.165 40.84 151.165 40.6 151.938 40.12C152.712 39.6133 153.432 39.0133 154.098 38.32L157.058 42C156.125 43.0933 154.898 43.9467 153.378 44.56C151.885 45.1733 150.178 45.48 148.258 45.48ZM148.138 27.88C146.938 27.88 145.992 28.28 145.298 29.08C144.632 29.8533 144.298 30.8933 144.298 32.2V32.52H151.658V32.16C151.658 30.88 151.365 29.8533 150.778 29.08C150.218 28.28 149.338 27.88 148.138 27.88ZM160.779 17.08H171.299C173.139 17.08 174.819 17.3733 176.339 17.96C177.859 18.5467 179.153 19.4267 180.219 20.6C181.286 21.7467 182.113 23.2 182.699 24.96C183.286 26.6933 183.579 28.72 183.579 31.04C183.579 33.36 183.286 35.4 182.699 37.16C182.113 38.8933 181.286 40.3467 180.219 41.52C179.153 42.6667 177.859 43.5333 176.339 44.12C174.819 44.7067 173.139 45 171.299 45H160.779V17.08ZM171.299 39.6C173.113 39.6 174.539 39.0933 175.579 38.08C176.619 37.0667 177.139 35.44 177.139 33.2V28.88C177.139 26.64 176.619 25.0133 175.579 24C174.539 22.9867 173.113 22.48 171.299 22.48H166.859V39.6H171.299ZM186.85 45V24H192.77V28.56H192.97C193.077 27.9733 193.263 27.4133 193.53 26.88C193.797 26.32 194.143 25.8267 194.57 25.4C195.023 24.9733 195.557 24.64 196.17 24.4C196.783 24.1333 197.503 24 198.33 24H199.37V29.52H197.89C196.157 29.52 194.863 29.7467 194.01 30.2C193.183 30.6533 192.77 31.4933 192.77 32.72V45H186.85ZM216.495 45C215.428 45 214.535 44.6667 213.815 44C213.122 43.3333 212.682 42.44 212.495 41.32H212.255C211.935 42.68 211.228 43.72 210.135 44.44C209.042 45.1333 207.695 45.48 206.095 45.48C203.988 45.48 202.375 44.92 201.255 43.8C200.135 42.68 199.575 41.2 199.575 39.36C199.575 37.1467 200.375 35.5067 201.975 34.44C203.602 33.3467 205.802 32.8 208.575 32.8H211.895V31.48C211.895 30.4667 211.628 29.6667 211.095 29.08C210.562 28.4667 209.668 28.16 208.415 28.16C207.242 28.16 206.308 28.4133 205.615 28.92C204.922 29.4267 204.348 30 203.895 30.64L200.375 27.52C201.228 26.2667 202.295 25.2933 203.575 24.6C204.882 23.88 206.642 23.52 208.855 23.52C211.842 23.52 214.082 24.1733 215.575 25.48C217.068 26.7867 217.815 28.6933 217.815 31.2V40.4H219.775V45H216.495ZM208.295 41.36C209.282 41.36 210.122 41.1467 210.815 40.72C211.535 40.2933 211.895 39.6 211.895 38.64V36.16H209.015C206.695 36.16 205.535 36.9467 205.535 38.52V39.12C205.535 39.8933 205.775 40.4667 206.255 40.84C206.735 41.1867 207.415 41.36 208.295 41.36ZM241.688 46.52C241.688 47.64 241.488 48.6267 241.088 49.48C240.715 50.3333 240.088 51.0533 239.208 51.64C238.328 52.2533 237.155 52.7067 235.688 53C234.248 53.32 232.462 53.48 230.328 53.48C228.515 53.48 226.968 53.36 225.688 53.12C224.435 52.9067 223.408 52.5867 222.608 52.16C221.835 51.76 221.262 51.2533 220.888 50.64C220.542 50.0533 220.368 49.3733 220.368 48.6C220.368 47.4267 220.715 46.5067 221.408 45.84C222.102 45.1733 223.062 44.76 224.288 44.6V44.16C223.275 43.9733 222.515 43.5467 222.008 42.88C221.502 42.1867 221.248 41.3867 221.248 40.48C221.248 39.92 221.355 39.44 221.568 39.04C221.808 38.6133 222.102 38.2533 222.448 37.96C222.822 37.64 223.248 37.3867 223.728 37.2C224.208 37.0133 224.688 36.8667 225.168 36.76V36.6C223.888 36.0133 222.942 35.2133 222.328 34.2C221.715 33.16 221.408 31.96 221.408 30.6C221.408 28.4667 222.142 26.76 223.608 25.48C225.102 24.1733 227.368 23.52 230.408 23.52C231.795 23.52 232.982 23.6533 233.968 23.92V23.12C233.968 22 234.235 21.2 234.768 20.72C235.328 20.2133 236.115 19.96 237.128 19.96H240.448V24.36H235.808V24.6C237.035 25.1867 237.942 26 238.528 27.04C239.115 28.0533 239.408 29.24 239.408 30.6C239.408 32.7067 238.662 34.4 237.168 35.68C235.702 36.9333 233.448 37.56 230.408 37.56C229.048 37.56 227.808 37.4133 226.688 37.12C226.075 37.52 225.768 38.08 225.768 38.8C225.768 39.3067 225.955 39.7067 226.328 40C226.728 40.2667 227.382 40.4 228.288 40.4H234.368C236.928 40.4 238.782 40.9333 239.928 42C241.102 43.0667 241.688 44.5733 241.688 46.52ZM236.128 47.32C236.128 46.7067 235.888 46.24 235.408 45.92C234.928 45.6 234.088 45.44 232.888 45.44H225.688C225.422 45.7067 225.222 46 225.088 46.32C224.982 46.6667 224.928 47 224.928 47.32C224.928 48.0933 225.262 48.6533 225.928 49C226.595 49.3733 227.728 49.56 229.328 49.56H231.728C233.328 49.56 234.462 49.3733 235.128 49C235.795 48.6533 236.128 48.0933 236.128 47.32ZM230.408 33.68C231.582 33.68 232.448 33.44 233.008 32.96C233.595 32.4533 233.888 31.7333 233.888 30.8V30.32C233.888 29.3867 233.595 28.68 233.008 28.2C232.448 27.6933 231.582 27.44 230.408 27.44C229.235 27.44 228.355 27.6933 227.768 28.2C227.208 28.68 226.928 29.3867 226.928 30.32V30.8C226.928 31.7333 227.208 32.4533 227.768 32.96C228.355 33.44 229.235 33.68 230.408 33.68ZM251.104 45.48C249.558 45.48 248.171 45.2267 246.944 44.72C245.744 44.2133 244.718 43.48 243.864 42.52C243.038 41.56 242.398 40.4 241.944 39.04C241.491 37.68 241.264 36.16 241.264 34.48C241.264 32.8 241.491 31.28 241.944 29.92C242.398 28.56 243.038 27.4133 243.864 26.48C244.718 25.52 245.744 24.7867 246.944 24.28C248.171 23.7733 249.558 23.52 251.104 23.52C252.651 23.52 254.024 23.7733 255.224 24.28C256.451 24.7867 257.478 25.52 258.304 26.48C259.158 27.4133 259.811 28.56 260.264 29.92C260.718 31.28 260.944 32.8 260.944 34.48C260.944 36.16 260.718 37.68 260.264 39.04C259.811 40.4 259.158 41.56 258.304 42.52C257.478 43.48 256.451 44.2133 255.224 44.72C254.024 45.2267 252.651 45.48 251.104 45.48ZM251.104 40.8C252.278 40.8 253.184 40.44 253.824 39.72C254.464 39 254.784 37.9733 254.784 36.64V32.36C254.784 31.0267 254.464 30 253.824 29.28C253.184 28.56 252.278 28.2 251.104 28.2C249.931 28.2 249.024 28.56 248.384 29.28C247.744 30 247.424 31.0267 247.424 32.36V36.64C247.424 37.9733 247.744 39 248.384 39.72C249.024 40.44 249.931 40.8 251.104 40.8ZM263.662 45V24H269.582V27.56H269.822C270.196 26.4667 270.849 25.52 271.782 24.72C272.716 23.92 274.009 23.52 275.662 23.52C277.822 23.52 279.449 24.24 280.542 25.68C281.662 27.12 282.222 29.1733 282.222 31.84V45H276.302V32.32C276.302 30.96 276.089 29.96 275.662 29.32C275.236 28.6533 274.476 28.32 273.382 28.32C272.902 28.32 272.436 28.3867 271.982 28.52C271.529 28.6267 271.116 28.8133 270.742 29.08C270.396 29.3467 270.116 29.68 269.902 30.08C269.689 30.4533 269.582 30.8933 269.582 31.4V45H263.662Z" fill="#F8FAFC"/>
</svg>
